<svg xmlns="http://www.w3.org/2000/svg" version="1.1" xmlns:xlink="http://www.w3.org/1999/xlink" width="159" height="159"><svg version="1.1" xmlns="http://www.w3.org/2000/svg" width="159" height="159">
<path d="M0 0 C1.35738281 0.41572266 1.35738281 0.41572266 2.7421875 0.83984375 C20.67397578 7.05581509 35.5950438 22.45222061 44.25 38.875 C53.17239582 57.52207792 55.52546436 80.09821455 49.125 99.921875 C48.568125 101.44554688 48.568125 101.44554688 48 103 C47.71125 103.89203125 47.4225 104.7840625 47.125 105.703125 C40.1985581 125.36927253 23.88533637 140.0627587 5.5 148.875 C-11.92266105 156.69486187 -34.79561666 158.66992557 -53 152 C-75.0834346 143.3036594 -91.63313616 128.80340574 -101.71484375 107.1796875 C-109.22611382 88.59557249 -109.91446048 66.87719486 -103 48 C-102.69964844 47.09636719 -102.39929688 46.19273438 -102.08984375 45.26171875 C-95.31237835 26.39630641 -80.29622865 12.38298861 -62.9375 3.125 C-43.23618245 -6.05809347 -20.50623931 -6.82748339 0 0 Z " fill="#10213E" transform="translate(107,4)"></path>
<path d="M0 0 C1.97920578 1.67202746 3.8382822 3.28116827 5.52734375 5.24609375 C5.52734375 5.90609375 5.52734375 6.56609375 5.52734375 7.24609375 C6.51734375 7.57609375 7.50734375 7.90609375 8.52734375 8.24609375 C9.52734375 10.37109375 9.52734375 10.37109375 10.52734375 13.24609375 C11.04296875 14.40109375 11.55859375 15.55609375 12.08984375 16.74609375 C14.17484608 21.82262115 14.64151701 26.34986263 14.90234375 31.80859375 C15.80978167 44.40751438 18.49053845 52.41621635 26.52734375 62.24609375 C27.26984375 63.31859375 28.01234375 64.39109375 28.77734375 65.49609375 C36.53966684 73.25841684 45.90561064 76.44725185 56.52734375 78.24609375 C56.17464438 80.82520792 55.86228784 81.96387234 53.83984375 83.66796875 C47.66113328 87.21655247 41.32582033 90.29719245 34.85742188 93.27319336 C30.64701813 95.21634886 26.56502236 97.27000798 22.52734375 99.55859375 C11.74138848 105.46672149 0.7578576 107.200357 -11.40625 104.625 C-21.2139788 101.09421763 -29.85564284 94.63345311 -34.47265625 85.24609375 C-34.93542969 84.38113281 -35.39820312 83.51617187 -35.875 82.625 C-39.47265625 75.75855912 -39.47265625 75.75855912 -39.47265625 72.24609375 C-40.13265625 72.24609375 -40.79265625 72.24609375 -41.47265625 72.24609375 C-41.88515625 71.00859375 -42.29765625 69.77109375 -42.72265625 68.49609375 C-43.00367187 67.68011719 -43.2846875 66.86414063 -43.57421875 66.0234375 C-44.19704096 64.09810449 -44.75000319 62.14931265 -45.24609375 60.1875 C-46.78040131 54.54997544 -47.94622665 51.00091291 -52.97265625 47.74609375 C-54.46973867 46.90753029 -55.96941503 46.07356598 -57.47265625 45.24609375 C-60.03515625 42.99609375 -60.03515625 42.99609375 -61.47265625 41.24609375 C-61.47265625 40.58609375 -61.47265625 39.92609375 -61.47265625 39.24609375 C-57.84265625 39.24609375 -54.21265625 39.24609375 -50.47265625 39.24609375 C-50.5190625 38.14652344 -50.56546875 37.04695313 -50.61328125 35.9140625 C-50.95927789 24.25978631 -49.94063772 14.49277475 -42.3046875 5.09765625 C-30.54241137 -6.79001728 -14.13051947 -10.02306989 0 0 Z " fill="#FAFBFB" transform="translate(81.47265625,30.75390625)"></path>
<path d="M0 0 C1.8125 0.875 1.8125 0.875 2.8125 2.875 C2.90805417 4.33079587 2.94234691 5.7910796 2.9375 7.25 C2.94007812 8.02085938 2.94265625 8.79171875 2.9453125 9.5859375 C2.76142393 12.75531117 2.37513758 15.09802429 0.5 17.6875 C-1.1875 18.875 -1.1875 18.875 -3.3125 18.625 C-5.1875 17.875 -5.1875 17.875 -6.1875 16.875 C-6.36608965 14.77583974 -6.45548477 12.66877312 -6.5 10.5625 C-6.53738281 9.41136719 -6.57476562 8.26023437 -6.61328125 7.07421875 C-6.1875 3.875 -6.1875 3.875 -4.3046875 1.44921875 C-2.1875 -0.125 -2.1875 -0.125 0 0 Z " fill="#2A3A53" transform="translate(63.1875,46.125)"></path>
<path d="M0 0 C3.69230769 0.69230769 3.69230769 0.69230769 5 2 C5.42971358 6.9251787 5.59903322 11.50241695 3.75 16.125 C1.8312917 18.18075889 0.76813126 18.71364159 -2 19 C-4.82816904 14.75774644 -4.54032271 10.98209319 -4 6 C-2.83567931 3.51949071 -1.90574048 1.90574048 0 0 Z " fill="#293953" transform="translate(44,46)"></path>
<path d="M0 0 C0.66 0.33 1.32 0.66 2 1 C0.71451591 2.33929505 -0.57858155 3.67128643 -1.875 5 C-2.59429687 5.7425 -3.31359375 6.485 -4.0546875 7.25 C-6 9 -6 9 -8 9 C-6.4169423 4.7257442 -3.49431596 2.73468206 0 0 Z " fill="#D1D5DB" transform="translate(46,30)"></path>
</svg><style>@media (prefers-color-scheme: light) { :root { filter: none; } }
@media (prefers-color-scheme: dark) { :root { filter: none; } }
</style></svg>